# xmcd
#
# Track frame offsets: 
#        183
#        17813
#        41755
#
# Disc length: 812 seconds
#
# Revision: 3
# Processed by: cddbd v1.5.1PL0 Copyright (c) Steve Scherf et al.
# Submitted via: ExactAudioCopy v0.95a5
#
DISCID=1e032a03
DTITLE=Lighthouse Family - Goodbye Heartbreak (SingleCD)
DYEAR=1996
DGENRE=Pop
TTITLE0=Goodbye Heartbreak (Phil Bodger Mix)
TTITLE1=Goodbye Heartbreak (Linslee Main Mix)
TTITLE2=Ocean Drive (Mindspell's Miami Beach Experience - Radio Mix)
EXTD=YEAR: 1996 ID3G: 13
EXTT0=
EXTT1=
EXTT2=
PLAYORDER=
